<mxfile host="app.diagrams.net" modified="2024-02-03T05:47:35.578Z" agent="Mozilla/5.0 (Windows NT 10.0; Win64; x64) AppleWebKit/537.36 (KHTML, like Gecko) Chrome/121.0.0.0 Safari/537.36 Edg/121.0.0.0" etag="KWN7riKfc1yN1EaSi0_l" version="23.1.0" type="github">
  <diagram id="C5RBs43oDa-KdzZeNtuy" name="Page-1">
    <mxGraphModel dx="911" dy="632" grid="1" gridSize="10" guides="1" tooltips="1" connect="1" arrows="1" fold="1" page="1" pageScale="1" pageWidth="1169" pageHeight="827" math="0" shadow="0">
      <root>
        <mxCell id="WIyWlLk6GJQsqaUBKTNV-0" />
        <mxCell id="WIyWlLk6GJQsqaUBKTNV-1" parent="WIyWlLk6GJQsqaUBKTNV-0" />
        <mxCell id="BHIsfLaD60TzP3I6xR96-93" value="taskDescription" style="ellipse;whiteSpace=wrap;html=1;align=center;fontStyle=0" vertex="1" parent="WIyWlLk6GJQsqaUBKTNV-1">
          <mxGeometry x="180" y="460" width="100" height="40" as="geometry" />
        </mxCell>
        <mxCell id="BHIsfLaD60TzP3I6xR96-105" value="taskPriority" style="ellipse;whiteSpace=wrap;html=1;align=center;fontStyle=0" vertex="1" parent="WIyWlLk6GJQsqaUBKTNV-1">
          <mxGeometry x="180" y="545" width="100" height="40" as="geometry" />
        </mxCell>
        <mxCell id="BHIsfLaD60TzP3I6xR96-111" value="has" style="shape=rhombus;perimeter=rhombusPerimeter;whiteSpace=wrap;html=1;align=center;fontStyle=0;" vertex="1" parent="WIyWlLk6GJQsqaUBKTNV-1">
          <mxGeometry x="480" y="310" width="120" height="60" as="geometry" />
        </mxCell>
        <mxCell id="BHIsfLaD60TzP3I6xR96-112" value="oneTask" style="rounded=1;arcSize=10;whiteSpace=wrap;html=1;align=center;fontStyle=0" vertex="1" parent="WIyWlLk6GJQsqaUBKTNV-1">
          <mxGeometry x="340" y="320" width="100" height="40" as="geometry" />
        </mxCell>
        <mxCell id="BHIsfLaD60TzP3I6xR96-114" value="listTasks" style="whiteSpace=wrap;html=1;align=center;fontStyle=0" vertex="1" parent="WIyWlLk6GJQsqaUBKTNV-1">
          <mxGeometry x="670" y="320" width="100" height="40" as="geometry" />
        </mxCell>
        <mxCell id="BHIsfLaD60TzP3I6xR96-116" value="&lt;u&gt;taskName&lt;/u&gt;" style="ellipse;whiteSpace=wrap;html=1;align=center;fontStyle=0" vertex="1" parent="WIyWlLk6GJQsqaUBKTNV-1">
          <mxGeometry x="180" y="180" width="100" height="40" as="geometry" />
        </mxCell>
        <mxCell id="BHIsfLaD60TzP3I6xR96-117" value="taskTime" style="ellipse;whiteSpace=wrap;html=1;align=center;fontStyle=0" vertex="1" parent="WIyWlLk6GJQsqaUBKTNV-1">
          <mxGeometry x="180" y="280" width="100" height="40" as="geometry" />
        </mxCell>
        <mxCell id="BHIsfLaD60TzP3I6xR96-118" value="taskStatus" style="ellipse;whiteSpace=wrap;html=1;align=center;fontStyle=0" vertex="1" parent="WIyWlLk6GJQsqaUBKTNV-1">
          <mxGeometry x="180" y="380" width="100" height="40" as="geometry" />
        </mxCell>
        <mxCell id="BHIsfLaD60TzP3I6xR96-119" value="taskCreated" style="ellipse;whiteSpace=wrap;html=1;align=center;fontStyle=4;" vertex="1" parent="WIyWlLk6GJQsqaUBKTNV-1">
          <mxGeometry x="40" y="250" width="100" height="40" as="geometry" />
        </mxCell>
        <mxCell id="BHIsfLaD60TzP3I6xR96-120" value="taskFinished" style="ellipse;whiteSpace=wrap;html=1;align=center;fontStyle=4;" vertex="1" parent="WIyWlLk6GJQsqaUBKTNV-1">
          <mxGeometry x="40" y="330" width="100" height="40" as="geometry" />
        </mxCell>
        <mxCell id="BHIsfLaD60TzP3I6xR96-134" value="tasksName" style="ellipse;whiteSpace=wrap;html=1;align=center;fontStyle=0" vertex="1" parent="WIyWlLk6GJQsqaUBKTNV-1">
          <mxGeometry x="550" y="400" width="100" height="40" as="geometry" />
        </mxCell>
        <mxCell id="BHIsfLaD60TzP3I6xR96-135" value="tasksPriority" style="ellipse;whiteSpace=wrap;html=1;align=center;fontStyle=0" vertex="1" parent="WIyWlLk6GJQsqaUBKTNV-1">
          <mxGeometry x="800" y="400" width="100" height="40" as="geometry" />
        </mxCell>
        <mxCell id="BHIsfLaD60TzP3I6xR96-136" value="tasksStatus" style="ellipse;whiteSpace=wrap;html=1;align=center;fontStyle=0" vertex="1" parent="WIyWlLk6GJQsqaUBKTNV-1">
          <mxGeometry x="670" y="400" width="100" height="40" as="geometry" />
        </mxCell>
        <mxCell id="BHIsfLaD60TzP3I6xR96-139" value="" style="endArrow=none;html=1;rounded=0;" edge="1" parent="WIyWlLk6GJQsqaUBKTNV-1">
          <mxGeometry relative="1" as="geometry">
            <mxPoint x="600" y="340" as="sourcePoint" />
            <mxPoint x="670" y="340" as="targetPoint" />
          </mxGeometry>
        </mxCell>
        <mxCell id="BHIsfLaD60TzP3I6xR96-140" value="1" style="resizable=0;html=1;whiteSpace=wrap;align=right;verticalAlign=bottom;" connectable="0" vertex="1" parent="BHIsfLaD60TzP3I6xR96-139">
          <mxGeometry x="1" relative="1" as="geometry" />
        </mxCell>
        <mxCell id="BHIsfLaD60TzP3I6xR96-141" value="" style="endArrow=none;html=1;rounded=0;exitX=0;exitY=0.5;exitDx=0;exitDy=0;entryX=1;entryY=0.5;entryDx=0;entryDy=0;" edge="1" parent="WIyWlLk6GJQsqaUBKTNV-1" source="BHIsfLaD60TzP3I6xR96-111" target="BHIsfLaD60TzP3I6xR96-112">
          <mxGeometry relative="1" as="geometry">
            <mxPoint x="440" y="270" as="sourcePoint" />
            <mxPoint x="420" y="330" as="targetPoint" />
          </mxGeometry>
        </mxCell>
        <mxCell id="BHIsfLaD60TzP3I6xR96-142" value="1" style="resizable=0;html=1;whiteSpace=wrap;align=right;verticalAlign=bottom;" connectable="0" vertex="1" parent="BHIsfLaD60TzP3I6xR96-141">
          <mxGeometry x="1" relative="1" as="geometry" />
        </mxCell>
        <mxCell id="BHIsfLaD60TzP3I6xR96-143" value="" style="endArrow=none;html=1;rounded=0;entryX=0;entryY=0.5;entryDx=0;entryDy=0;exitX=1;exitY=1;exitDx=0;exitDy=0;" edge="1" parent="WIyWlLk6GJQsqaUBKTNV-1" source="BHIsfLaD60TzP3I6xR96-116" target="BHIsfLaD60TzP3I6xR96-112">
          <mxGeometry relative="1" as="geometry">
            <mxPoint x="280" y="190" as="sourcePoint" />
            <mxPoint x="440" y="190" as="targetPoint" />
          </mxGeometry>
        </mxCell>
        <mxCell id="BHIsfLaD60TzP3I6xR96-144" value="" style="endArrow=none;html=1;rounded=0;entryX=0;entryY=0.5;entryDx=0;entryDy=0;" edge="1" parent="WIyWlLk6GJQsqaUBKTNV-1" target="BHIsfLaD60TzP3I6xR96-112">
          <mxGeometry relative="1" as="geometry">
            <mxPoint x="280" y="564.5" as="sourcePoint" />
            <mxPoint x="440" y="564.5" as="targetPoint" />
          </mxGeometry>
        </mxCell>
        <mxCell id="BHIsfLaD60TzP3I6xR96-145" value="" style="endArrow=none;html=1;rounded=0;entryX=0;entryY=0.5;entryDx=0;entryDy=0;" edge="1" parent="WIyWlLk6GJQsqaUBKTNV-1" target="BHIsfLaD60TzP3I6xR96-112">
          <mxGeometry relative="1" as="geometry">
            <mxPoint x="280" y="299.5" as="sourcePoint" />
            <mxPoint x="440" y="299.5" as="targetPoint" />
          </mxGeometry>
        </mxCell>
        <mxCell id="BHIsfLaD60TzP3I6xR96-146" value="" style="endArrow=none;html=1;rounded=0;entryX=0;entryY=0.5;entryDx=0;entryDy=0;" edge="1" parent="WIyWlLk6GJQsqaUBKTNV-1" target="BHIsfLaD60TzP3I6xR96-112">
          <mxGeometry relative="1" as="geometry">
            <mxPoint x="280" y="399.5" as="sourcePoint" />
            <mxPoint x="440" y="399.5" as="targetPoint" />
          </mxGeometry>
        </mxCell>
        <mxCell id="BHIsfLaD60TzP3I6xR96-147" value="" style="endArrow=none;html=1;rounded=0;entryX=-0.04;entryY=0.35;entryDx=0;entryDy=0;entryPerimeter=0;exitX=1;exitY=0.5;exitDx=0;exitDy=0;" edge="1" parent="WIyWlLk6GJQsqaUBKTNV-1" source="BHIsfLaD60TzP3I6xR96-119" target="BHIsfLaD60TzP3I6xR96-117">
          <mxGeometry relative="1" as="geometry">
            <mxPoint x="130" y="269.5" as="sourcePoint" />
            <mxPoint x="290" y="269.5" as="targetPoint" />
            <Array as="points">
              <mxPoint x="180" y="300" />
            </Array>
          </mxGeometry>
        </mxCell>
        <mxCell id="BHIsfLaD60TzP3I6xR96-148" value="" style="endArrow=none;html=1;rounded=0;" edge="1" parent="WIyWlLk6GJQsqaUBKTNV-1" source="BHIsfLaD60TzP3I6xR96-120">
          <mxGeometry relative="1" as="geometry">
            <mxPoint x="20" y="300" as="sourcePoint" />
            <mxPoint x="180" y="300" as="targetPoint" />
          </mxGeometry>
        </mxCell>
        <mxCell id="BHIsfLaD60TzP3I6xR96-149" value="" style="endArrow=none;html=1;rounded=0;entryX=0.5;entryY=1;entryDx=0;entryDy=0;" edge="1" parent="WIyWlLk6GJQsqaUBKTNV-1" source="BHIsfLaD60TzP3I6xR96-134" target="BHIsfLaD60TzP3I6xR96-114">
          <mxGeometry relative="1" as="geometry">
            <mxPoint x="520" y="370" as="sourcePoint" />
            <mxPoint x="680" y="370" as="targetPoint" />
          </mxGeometry>
        </mxCell>
        <mxCell id="BHIsfLaD60TzP3I6xR96-150" value="" style="endArrow=none;html=1;rounded=0;entryX=0.5;entryY=0;entryDx=0;entryDy=0;exitX=0.5;exitY=1;exitDx=0;exitDy=0;" edge="1" parent="WIyWlLk6GJQsqaUBKTNV-1" source="BHIsfLaD60TzP3I6xR96-114" target="BHIsfLaD60TzP3I6xR96-136">
          <mxGeometry relative="1" as="geometry">
            <mxPoint x="720" y="370" as="sourcePoint" />
            <mxPoint x="910" y="440" as="targetPoint" />
          </mxGeometry>
        </mxCell>
        <mxCell id="BHIsfLaD60TzP3I6xR96-151" value="" style="endArrow=none;html=1;rounded=0;exitX=0.5;exitY=1;exitDx=0;exitDy=0;entryX=0.3;entryY=0.05;entryDx=0;entryDy=0;entryPerimeter=0;" edge="1" parent="WIyWlLk6GJQsqaUBKTNV-1" source="BHIsfLaD60TzP3I6xR96-114" target="BHIsfLaD60TzP3I6xR96-135">
          <mxGeometry relative="1" as="geometry">
            <mxPoint x="760" y="370" as="sourcePoint" />
            <mxPoint x="920" y="370" as="targetPoint" />
          </mxGeometry>
        </mxCell>
      </root>
    </mxGraphModel>
  </diagram>
</mxfile>
